<svg width="32" height="33" viewBox="0 0 32 33" fill="none" xmlns="http://www.w3.org/2000/svg">
<path d="M19 10.5833H26V12.5833H19V10.5833ZM19 15.5833H26V17.5833H19V15.5833ZM19 20.5833H26V22.5833H19V20.5833ZM6 10.5833H13V12.5833H6V10.5833ZM6 15.5833H13V17.5833H6V15.5833ZM6 20.5833H13V22.5833H6V20.5833Z" fill="#2A74BD"/>
<path d="M28 5.58334H4C3.46957 5.58334 2.96086 5.79406 2.58579 6.16913C2.21071 6.5442 2 7.05291 2 7.58334V25.5833C2 26.1138 2.21071 26.6225 2.58579 26.9976C2.96086 27.3726 3.46957 27.5833 4 27.5833H28C28.5304 27.5833 29.0391 27.3726 29.4142 26.9976C29.7893 26.6225 30 26.1138 30 25.5833V7.58334C30 7.05291 29.7893 6.5442 29.4142 6.16913C29.0391 5.79406 28.5304 5.58334 28 5.58334ZM4 7.58334H15V25.5833H4V7.58334ZM17 25.5833V7.58334H28V25.5833H17Z" fill="#2A74BD"/>
</svg>
