<svg width="32" height="33" viewBox="0 0 32 33" fill="none" xmlns="http://www.w3.org/2000/svg">
<path d="M14.2133 14.7967C13.7376 15.2699 13.4691 15.9124 13.4666 16.5833C13.4666 17.2552 13.7335 17.8996 14.2086 18.3747C14.6837 18.8498 15.3281 19.1167 16 19.1167C16.6709 19.1142 17.3135 18.8457 17.7866 18.37" stroke="#2A74BD" stroke-width="2" stroke-linecap="round" stroke-linejoin="round"/>
<path d="M16 8.98335C14.4969 8.98335 13.0275 9.42908 11.7777 10.2642C10.5279 11.0993 9.55374 12.2862 8.97851 13.675C8.40329 15.0637 8.25278 16.5918 8.54603 18.066C8.83928 19.5403 9.56311 20.8945 10.626 21.9574C11.6889 23.0202 13.0431 23.7441 14.5173 24.0373C15.9916 24.3306 17.5197 24.1801 18.9084 23.6048C20.2971 23.0296 21.4841 22.0555 22.3192 20.8057C23.1543 19.5559 23.6 18.0865 23.6 16.5833" stroke="#2A74BD" stroke-width="2" stroke-linecap="round" stroke-linejoin="round"/>
<path d="M16 3.91668C13.4948 3.91668 11.0458 4.65957 8.96276 6.0514C6.87974 7.44323 5.25622 9.42149 4.29751 11.736C3.3388 14.0506 3.08796 16.5974 3.57671 19.0545C4.06545 21.5116 5.27183 23.7686 7.0433 25.54C8.81476 27.3115 11.0717 28.5179 13.5288 29.0066C15.9859 29.4954 18.5328 29.2445 20.8473 28.2858C23.1618 27.3271 25.1401 25.7036 26.5319 23.6206C27.9238 21.5375 28.6666 19.0886 28.6666 16.5833M20.7 11.8847L17.2667 15.3167" stroke="#2A74BD" stroke-width="2" stroke-linecap="round" stroke-linejoin="round"/>
<path d="M27.92 8.37535L23.6 8.98335L24.208 4.66335C24.2124 4.61317 24.2018 4.5628 24.1775 4.51868C24.1532 4.47455 24.1163 4.43868 24.0715 4.41564C24.0267 4.39259 23.9761 4.38343 23.926 4.38932C23.876 4.3952 23.8289 4.41587 23.7907 4.44868L20.9267 7.29801C20.6325 7.59431 20.4161 7.95871 20.2968 8.35882C20.1774 8.75892 20.1589 9.18232 20.2427 9.59135L20.6987 11.8847L22.992 12.3393C23.401 12.4231 23.8244 12.4046 24.2245 12.2852C24.6246 12.1659 24.989 11.9495 25.2853 11.6553L28.1333 8.79268C28.1662 8.75437 28.187 8.70709 28.1928 8.65692C28.1987 8.60675 28.1894 8.55597 28.1662 8.51111C28.143 8.46624 28.1069 8.42935 28.0625 8.40516C28.0182 8.38097 27.9676 8.37058 27.9173 8.37535" stroke="#2A74BD" stroke-width="2" stroke-linecap="round" stroke-linejoin="round"/>
</svg>
