<svg width="32" height="33" viewBox="0 0 32 33" fill="none" xmlns="http://www.w3.org/2000/svg">
<path d="M18.6667 29.9167H13.3333C8.30534 29.9167 5.79067 29.9167 4.22934 28.354C2.668 26.7913 2.66667 24.278 2.66667 19.25V16.5833C2.66667 11.5553 2.66667 9.04067 4.22934 7.47934C5.792 5.91801 8.30534 5.91667 13.3333 5.91667H18.6667C23.6947 5.91667 26.2093 5.91667 27.7707 7.47934C29.332 9.04201 29.3333 11.5553 29.3333 16.5833V19.25C29.3333 24.278 29.3333 26.7927 27.7707 28.354C26.9 29.226 25.7333 29.6113 24 29.7807M9.33334 5.91667V3.91667M22.6667 5.91667V3.91667M28.6667 12.5833H14.3333M2.66667 12.5833H7.83334" stroke="#2A74BD" stroke-width="2" stroke-linecap="round"/>
<path d="M24 23.25C24 23.6036 23.8595 23.9428 23.6095 24.1928C23.3594 24.4429 23.0203 24.5833 22.6667 24.5833C22.313 24.5833 21.9739 24.4429 21.7239 24.1928C21.4738 23.9428 21.3333 23.6036 21.3333 23.25C21.3333 22.8964 21.4738 22.5572 21.7239 22.3072C21.9739 22.0572 22.313 21.9167 22.6667 21.9167C23.0203 21.9167 23.3594 22.0572 23.6095 22.3072C23.8595 22.5572 24 22.8964 24 23.25ZM24 17.9167C24 18.2703 23.8595 18.6094 23.6095 18.8595C23.3594 19.1095 23.0203 19.25 22.6667 19.25C22.313 19.25 21.9739 19.1095 21.7239 18.8595C21.4738 18.6094 21.3333 18.2703 21.3333 17.9167C21.3333 17.5631 21.4738 17.2239 21.7239 16.9739C21.9739 16.7238 22.313 16.5833 22.6667 16.5833C23.0203 16.5833 23.3594 16.7238 23.6095 16.9739C23.8595 17.2239 24 17.5631 24 17.9167ZM17.3333 23.25C17.3333 23.6036 17.1929 23.9428 16.9428 24.1928C16.6928 24.4429 16.3536 24.5833 16 24.5833C15.6464 24.5833 15.3072 24.4429 15.0572 24.1928C14.8071 23.9428 14.6667 23.6036 14.6667 23.25C14.6667 22.8964 14.8071 22.5572 15.0572 22.3072C15.3072 22.0572 15.6464 21.9167 16 21.9167C16.3536 21.9167 16.6928 22.0572 16.9428 22.3072C17.1929 22.5572 17.3333 22.8964 17.3333 23.25ZM17.3333 17.9167C17.3333 18.2703 17.1929 18.6094 16.9428 18.8595C16.6928 19.1095 16.3536 19.25 16 19.25C15.6464 19.25 15.3072 19.1095 15.0572 18.8595C14.8071 18.6094 14.6667 18.2703 14.6667 17.9167C14.6667 17.5631 14.8071 17.2239 15.0572 16.9739C15.3072 16.7238 15.6464 16.5833 16 16.5833C16.3536 16.5833 16.6928 16.7238 16.9428 16.9739C17.1929 17.2239 17.3333 17.5631 17.3333 17.9167ZM10.6667 23.25C10.6667 23.6036 10.5262 23.9428 10.2761 24.1928C10.0261 24.4429 9.68696 24.5833 9.33333 24.5833C8.97971 24.5833 8.64057 24.4429 8.39052 24.1928C8.14048 23.9428 8 23.6036 8 23.25C8 22.8964 8.14048 22.5572 8.39052 22.3072C8.64057 22.0572 8.97971 21.9167 9.33333 21.9167C9.68696 21.9167 10.0261 22.0572 10.2761 22.3072C10.5262 22.5572 10.6667 22.8964 10.6667 23.25ZM10.6667 17.9167C10.6667 18.2703 10.5262 18.6094 10.2761 18.8595C10.0261 19.1095 9.68696 19.25 9.33333 19.25C8.97971 19.25 8.64057 19.1095 8.39052 18.8595C8.14048 18.6094 8 18.2703 8 17.9167C8 17.5631 8.14048 17.2239 8.39052 16.9739C8.64057 16.7238 8.97971 16.5833 9.33333 16.5833C9.68696 16.5833 10.0261 16.7238 10.2761 16.9739C10.5262 17.2239 10.6667 17.5631 10.6667 17.9167Z" fill="#2A74BD"/>
</svg>
