<svg width="31" height="26" viewBox="0 0 31 26" fill="none" xmlns="http://www.w3.org/2000/svg">
<g clip-path="url(#clip0_412_149)">
<path d="M10.9862 23.7176C11.5521 24.4331 12.2731 25.0107 13.0949 25.4067C13.9167 25.8027 14.8177 26.0068 15.7299 26.0036C16.6421 26.0068 17.5432 25.8027 18.365 25.4067C19.1867 25.0107 19.9078 24.4331 20.4736 23.7176C17.3255 24.1436 14.1343 24.1436 10.9862 23.7176ZM24.5074 9.09888V10.0143C24.5074 11.1131 24.8195 12.1872 25.4072 13.1014L26.848 15.3419C28.1627 17.3887 27.1588 20.1702 24.8715 20.8165C18.8946 22.5091 12.5652 22.5091 6.58837 20.8165C4.30103 20.1702 3.29715 17.3887 4.61182 15.3419L6.05262 13.1014C6.64196 12.1797 6.9547 11.1083 6.95377 10.0143V9.09888C6.95377 4.07168 10.8835 -0.00366211 15.7299 -0.00366211C20.5764 -0.00366211 24.5074 4.07168 24.5074 9.09888Z" fill="white"/>
</g>
<defs>
<clipPath id="clip0_412_149">
<rect width="30.5401" height="26.0073" fill="white" transform="translate(0.459869 -0.00366211)"/>
</clipPath>
</defs>
</svg>
