<svg width="32" height="33" viewBox="0 0 32 33" fill="none" xmlns="http://www.w3.org/2000/svg">
<path d="M2 16.5833C2 18.4218 2.36212 20.2424 3.06569 21.9409C3.76925 23.6395 4.80048 25.1828 6.1005 26.4828C7.40053 27.7829 8.94387 28.8141 10.6424 29.5177C12.341 30.2212 14.1615 30.5833 16 30.5833C17.8385 30.5833 19.659 30.2212 21.3576 29.5177C23.0561 28.8141 24.5995 27.7829 25.8995 26.4828C27.1995 25.1828 28.2307 23.6395 28.9343 21.9409C29.6379 20.2424 30 18.4218 30 16.5833C30 14.7448 29.6379 12.9243 28.9343 11.2258C28.2307 9.52722 27.1995 7.98387 25.8995 6.68385C24.5995 5.38383 23.0561 4.3526 21.3576 3.64903C19.659 2.94546 17.8385 2.58334 16 2.58334C14.1615 2.58334 12.341 2.94546 10.6424 3.64903C8.94387 4.3526 7.40053 5.38383 6.1005 6.68385C4.80048 7.98387 3.76925 9.52722 3.06569 11.2258C2.36212 12.9243 2 14.7448 2 16.5833Z" stroke="#2A74BD" stroke-width="2" stroke-linecap="round" stroke-linejoin="round"/>
<path d="M20.3555 11.9167C20.0737 11.4279 19.6643 11.0249 19.1711 10.7509C18.6779 10.4769 18.1194 10.3421 17.5555 10.3611H14.4444C13.6193 10.3611 12.828 10.6889 12.2445 11.2723C11.6611 11.8558 11.3333 12.6471 11.3333 13.4722C11.3333 14.2973 11.6611 15.0887 12.2445 15.6721C12.828 16.2556 13.6193 16.5833 14.4444 16.5833H17.5555C18.3807 16.5833 19.172 16.9111 19.7554 17.4946C20.3389 18.078 20.6666 18.8693 20.6666 19.6944C20.6666 20.5196 20.3389 21.3109 19.7554 21.8943C19.172 22.4778 18.3807 22.8056 17.5555 22.8056H14.4444C13.8805 22.8245 13.3221 22.6898 12.8289 22.4158C12.3356 22.1418 11.9262 21.7388 11.6444 21.25M16 8.80556V24.3611" stroke="#2A74BD" stroke-width="2" stroke-linecap="round" stroke-linejoin="round"/>
</svg>
