<svg width="33" height="33" viewBox="0 0 33 33" fill="none" xmlns="http://www.w3.org/2000/svg">
<path d="M9.83333 21.9167C10.3638 21.9167 10.8725 21.706 11.2475 21.3309C11.6226 20.9558 11.8333 20.4471 11.8333 19.9167C11.8383 19.8501 11.8383 19.7833 11.8333 19.7167L15.5533 15.9967H16.1667L18.3133 18.1433V18.25C18.3133 18.7804 18.524 19.2892 18.8991 19.6642C19.2742 20.0393 19.7829 20.25 20.3133 20.25C20.8438 20.25 21.3525 20.0393 21.7275 19.6642C22.1026 19.2892 22.3133 18.7804 22.3133 18.25V18.1433L27.1667 13.25C27.5622 13.25 27.9489 13.1327 28.2778 12.913C28.6067 12.6932 28.863 12.3808 29.0144 12.0154C29.1658 11.6499 29.2054 11.2478 29.1282 10.8598C29.0511 10.4719 28.8606 10.1155 28.5809 9.8358C28.3012 9.5561 27.9448 9.36561 27.5568 9.28844C27.1689 9.21127 26.7668 9.25088 26.4013 9.40226C26.0358 9.55363 25.7235 9.80998 25.5037 10.1389C25.284 10.4678 25.1667 10.8545 25.1667 11.25C25.1617 11.3166 25.1617 11.3834 25.1667 11.45L20.3533 16.2633H20.14L17.8333 13.9167C17.8333 13.3862 17.6226 12.8775 17.2475 12.5025C16.8725 12.1274 16.3638 11.9167 15.8333 11.9167C15.3029 11.9167 14.7942 12.1274 14.4191 12.5025C14.044 12.8775 13.8333 13.3862 13.8333 13.9167L9.83333 17.9167C9.3029 17.9167 8.79419 18.1274 8.41912 18.5025C8.04405 18.8775 7.83333 19.3862 7.83333 19.9167C7.83333 20.4471 8.04405 20.9558 8.41912 21.3309C8.79419 21.706 9.3029 21.9167 9.83333 21.9167ZM27.8333 27.25H5.16667V4.58335C5.16667 4.22973 5.02619 3.89059 4.77614 3.64054C4.52609 3.39049 4.18696 3.25002 3.83333 3.25002C3.47971 3.25002 3.14057 3.39049 2.89052 3.64054C2.64048 3.89059 2.5 4.22973 2.5 4.58335V28.5833C2.5 28.937 2.64048 29.2761 2.89052 29.5262C3.14057 29.7762 3.47971 29.9167 3.83333 29.9167H27.8333C28.187 29.9167 28.5261 29.7762 28.7761 29.5262C29.0262 29.2761 29.1667 28.937 29.1667 28.5833C29.1667 28.2297 29.0262 27.8906 28.7761 27.6405C28.5261 27.3905 28.187 27.25 27.8333 27.25Z" fill="#2A74BD"/>
</svg>
